<svg width="20" height="16" viewBox="0 0 20 16" fill="none" xmlns="http://www.w3.org/2000/svg">
<path fill-rule="evenodd" clip-rule="evenodd" d="M0.633789 14.8114C0.633789 14.5856 0.723491 14.3691 0.883163 14.2094C1.04283 14.0497 1.25939 13.96 1.4852 13.96H18.5135C18.7393 13.96 18.9558 14.0497 19.1155 14.2094C19.2752 14.3691 19.3649 14.5856 19.3649 14.8114C19.3649 15.0372 19.2752 15.2538 19.1155 15.4135C18.9558 15.5731 18.7393 15.6628 18.5135 15.6628H1.4852C1.25939 15.6628 1.04283 15.5731 0.883163 15.4135C0.723491 15.2538 0.633789 15.0372 0.633789 14.8114ZM0.633789 8.00013C0.633789 7.77432 0.723491 7.55776 0.883163 7.39809C1.04283 7.23841 1.25939 7.14871 1.4852 7.14871H18.5135C18.7393 7.14871 18.9558 7.23841 19.1155 7.39809C19.2752 7.55776 19.3649 7.77432 19.3649 8.00013C19.3649 8.22593 19.2752 8.4425 19.1155 8.60217C18.9558 8.76184 18.7393 8.85154 18.5135 8.85154H1.4852C1.25939 8.85154 1.04283 8.76184 0.883163 8.60217C0.723491 8.4425 0.633789 8.22593 0.633789 8.00013ZM0.633789 1.18882C0.633789 0.963007 0.723491 0.746447 0.883163 0.586776C1.04283 0.427105 1.25939 0.337402 1.4852 0.337402H18.5135C18.7393 0.337402 18.9558 0.427105 19.1155 0.586776C19.2752 0.746447 19.3649 0.963007 19.3649 1.18882C19.3649 1.41463 19.2752 1.63119 19.1155 1.79086C18.9558 1.95053 18.7393 2.04023 18.5135 2.04023H1.4852C1.25939 2.04023 1.04283 1.95053 0.883163 1.79086C0.723491 1.63119 0.633789 1.41463 0.633789 1.18882Z" fill="#363636"/>
</svg>
