<svg width="32" height="32" viewBox="0 0 32 32" fill="none" xmlns="http://www.w3.org/2000/svg">
<path d="M13.0951 15.5C13.6601 16.5 14.8351 18.335 16.7851 19.105C16.9357 19.1674 17.0986 19.1948 17.2614 19.1853C17.4242 19.1758 17.5827 19.1295 17.7251 19.05L18.8951 18.415C19.1526 18.2745 19.44 18.1981 19.7333 18.192C20.0265 18.1859 20.3169 18.2504 20.5801 18.38L22.0501 19.295C22.1716 19.3621 22.2778 19.4539 22.3619 19.5643C22.446 19.6747 22.5062 19.8015 22.5387 19.9365C22.5711 20.0715 22.5751 20.2117 22.5504 20.3484C22.5257 20.485 22.4728 20.6149 22.3951 20.73C22.0501 21.415 22.1251 21.285 22.0251 21.465C21.7351 21.99 21.1501 22.965 19.8351 22.865C18.7001 22.765 10.0851 21.705 9.33505 12.62C9.33265 12.5734 9.33265 12.5266 9.33505 12.48C9.3669 11.7015 9.67949 10.9609 10.2151 10.395C10.4559 10.1306 10.7358 9.9046 11.0451 9.72499C11.4101 9.50999 12.1951 9.12499 12.7301 9.94999C13.2651 10.775 13.6451 11.365 13.6451 11.365C13.8177 11.6361 13.9139 11.9487 13.9236 12.2699C13.9332 12.5911 13.856 12.909 13.7001 13.19L13.1001 14.19C12.9843 14.3887 12.9229 14.6144 12.922 14.8443C12.9212 15.0743 12.9808 15.3004 13.0951 15.5Z" stroke="#363636" stroke-width="1.5"/>
<path d="M16 29.005C23.1825 29.005 29.005 23.1825 29.005 16C29.005 8.81753 23.1825 2.995 16 2.995C8.81753 2.995 2.995 8.81753 2.995 16C2.995 23.1825 8.81753 29.005 16 29.005Z" stroke="#363636" stroke-width="1.5"/>
</svg>
