<svg width="202" height="24" viewBox="0 0 202 24" fill="none" xmlns="http://www.w3.org/2000/svg">
<path fill-rule="evenodd" clip-rule="evenodd" d="M3.82157 1.05413H7.94404L13.0594 16.4173L18.25 1.05413H22.3122L26.0433 23.0808H21.9811L19.604 9.17003L14.895 23.0808H11.1789L6.53 9.17003L4.10786 23.0808H0.000398636L3.82179 1.05413H3.82157ZM36.6499 6.36982C38.1945 6.36982 39.6464 6.75414 41.0054 7.52278C42.3644 8.29141 43.4251 9.33459 44.1874 10.6523C44.9497 11.97 45.3308 13.3925 45.3308 14.9198C45.3308 16.4571 44.9471 17.8948 44.1798 19.2324C43.4125 20.5701 42.3668 21.6156 41.0428 22.3695C39.7188 23.1232 38.2595 23.5002 36.6647 23.5002C34.3179 23.5002 32.3143 22.6692 30.6542 21.007C28.9941 19.3448 28.1642 17.326 28.1642 14.9499C28.1642 12.4044 29.102 10.2831 30.9775 8.58609C32.6223 7.10858 34.513 6.37004 36.6495 6.37004L36.6499 6.36982ZM36.7102 10.2182C35.4362 10.2182 34.3757 10.6599 33.5282 11.5433C32.6806 12.4267 32.2568 13.5573 32.2568 14.9348C32.2568 16.3523 32.6756 17.5003 33.5132 18.3789C34.3507 19.2573 35.4114 19.6966 36.6952 19.6966C37.9789 19.6966 39.0473 19.2526 39.8998 18.364C40.7524 17.4754 41.1786 16.3324 41.1786 14.9348C41.1786 13.5374 40.7598 12.4018 39.9222 11.5283C39.0847 10.6549 38.0142 10.2182 36.7102 10.2182ZM60.7824 0.500061H64.8746V23.0808H60.7824V21.3588C59.9799 22.1175 59.1749 22.664 58.3676 22.9985C57.5601 23.333 56.6851 23.5002 55.7423 23.5002C53.626 23.5002 51.7954 22.6841 50.2508 21.052C48.7063 19.4197 47.934 17.391 47.934 14.9651C47.934 12.4494 48.6812 10.3879 50.1756 8.78095C51.6701 7.17375 53.4855 6.37004 55.622 6.37004C56.6049 6.37004 57.5277 6.55473 58.3903 6.92411C59.2528 7.29348 60.0503 7.84755 60.7824 8.58609V0.500278V0.500061ZM56.4643 10.1433C55.1904 10.1433 54.1323 10.5899 53.2899 11.4835C52.4474 12.3769 52.0262 13.5224 52.0262 14.9201C52.0262 16.3276 52.455 17.4856 53.3125 18.3941C54.1701 19.3026 55.2259 19.7566 56.4796 19.7566C57.7735 19.7566 58.8467 19.3099 59.6992 18.4164C60.5518 17.523 60.9779 16.3523 60.9779 14.9049C60.9779 13.4874 60.5518 12.3394 59.6992 11.461C58.8467 10.5826 57.7685 10.1433 56.4646 10.1433H56.4643ZM69.0119 6.789H73.1644V14.6353C73.1644 16.1627 73.2697 17.2234 73.4802 17.8173C73.691 18.4112 74.0293 18.8728 74.4957 19.2023C74.9622 19.5319 75.5363 19.6964 76.2183 19.6964C76.9005 19.6964 77.4796 19.5342 77.956 19.2097C78.4324 18.8853 78.7859 18.4086 79.0167 17.7798C79.1871 17.3106 79.2724 16.3073 79.2724 14.77V6.78878H83.3948V13.6918C83.3948 16.5368 83.1692 18.4835 82.7178 19.5316C82.1661 20.8093 81.3536 21.7901 80.2805 22.4741C79.2073 23.1579 77.8433 23.5 76.1882 23.5C74.3928 23.5 72.9412 23.1007 71.8328 22.302C70.7246 21.5033 69.9447 20.3904 69.4933 18.9629C69.1724 17.9745 69.0119 16.1776 69.0119 13.5722V6.789ZM87.0811 0.500061H91.1884V23.0808H87.0811V0.500061Z" fill="#C00000"/>
<path fill-rule="evenodd" clip-rule="evenodd" d="M106.127 1.05408H110.249L115.365 16.4172L120.555 1.05408H124.617L128.349 23.0807H124.286L121.909 9.16999L117.2 23.0807H113.484L108.835 9.16999L106.413 23.0807H102.306L106.127 1.05408H106.127ZM143.373 6.78895H147.466V23.0807H143.373V21.3588C142.571 22.1175 141.766 22.6639 140.959 22.9985C140.151 23.333 139.276 23.5001 138.333 23.5001C136.217 23.5001 134.386 22.6841 132.842 21.052C131.297 19.4197 130.525 17.3909 130.525 14.9651C130.525 12.4493 131.272 10.3879 132.767 8.78091C134.261 7.1737 136.077 6.37 138.213 6.37C139.196 6.37 140.119 6.55468 140.981 6.92406C141.844 7.29344 142.641 7.8475 143.373 8.58604V6.78917L143.373 6.78895ZM139.055 10.1432C137.782 10.1432 136.724 10.5899 135.881 11.4835C135.038 12.3768 134.617 13.5224 134.617 14.92C134.617 16.3276 135.046 17.4855 135.904 18.394C136.761 19.3025 137.817 19.7566 139.07 19.7566C140.364 19.7566 141.438 19.3099 142.29 18.4163C143.143 17.523 143.569 16.3523 143.569 14.9049C143.569 13.4873 143.143 12.3394 142.29 11.4609C141.438 10.5825 140.359 10.1432 139.055 10.1432ZM161.649 9.06498L159.106 11.5956C158.073 10.5776 157.135 10.0683 156.293 10.0683C155.831 10.0683 155.47 10.1655 155.209 10.3604C154.949 10.555 154.818 10.7971 154.818 11.0866C154.818 11.3061 154.901 11.5084 155.066 11.6933C155.232 11.878 155.641 12.13 156.293 12.4493L157.797 13.1981C159.382 13.9767 160.47 14.7702 161.062 15.5789C161.654 16.3873 161.949 17.3359 161.949 18.4239C161.949 19.8713 161.415 21.0793 160.347 22.0477C159.279 23.016 157.847 23.5001 156.052 23.5001C153.665 23.5001 151.759 22.5717 150.335 20.7149L152.862 17.9746C153.344 18.5337 153.908 18.9853 154.555 19.3298C155.202 19.6743 155.776 19.8464 156.278 19.8464C156.819 19.8464 157.256 19.7167 157.587 19.4571C157.918 19.1975 158.083 18.8981 158.083 18.5586C158.083 17.9296 157.486 17.3158 156.293 16.7167L154.909 16.0279C152.261 14.7003 150.937 13.0383 150.937 11.0416C150.937 9.75372 151.436 8.65316 152.434 7.7399C153.432 6.82663 154.708 6.36978 156.263 6.36978C157.326 6.36978 158.326 6.60188 159.264 7.0661C160.202 7.53031 160.997 8.19675 161.649 9.06519L161.649 9.06498ZM165.691 0.784302H169.783V6.78874H172.221V10.3076H169.783V23.0803H165.691V10.3076H163.585V6.78874H165.691V0.784302ZM190.841 16.1176H177.647C177.838 17.2755 178.347 18.1966 179.174 18.8803C180.002 19.5641 181.057 19.906 182.341 19.906C183.876 19.906 185.195 19.372 186.298 18.3037L189.758 19.9209C188.896 21.1388 187.863 22.0397 186.659 22.6239C185.455 23.2078 184.026 23.4999 182.371 23.4999C179.803 23.4999 177.712 22.6938 176.097 21.0816C174.483 19.4695 173.675 17.4504 173.675 15.0246C173.675 12.539 174.48 10.4751 176.09 8.83287C177.7 7.19081 179.718 6.36956 182.145 6.36956C184.723 6.36956 186.819 7.19059 188.434 8.83287C190.049 10.4749 190.856 12.6438 190.856 15.339L190.841 16.1176ZM186.719 12.8982C186.448 11.9897 185.914 11.2511 185.117 10.6821C184.319 10.1131 183.394 9.82863 182.341 9.82863C181.198 9.82863 180.194 10.148 179.332 10.7869C178.79 11.1862 178.289 11.8899 177.827 12.8982H186.719H186.719ZM193.214 6.78874H196.734V8.84023C197.115 8.03176 197.622 7.41772 198.254 6.99833C198.886 6.57893 199.578 6.36935 200.33 6.36935C200.862 6.36935 201.418 6.509 202 6.78852L200.721 10.3073C200.24 10.0677 199.844 9.94793 199.533 9.94793C198.901 9.94793 198.367 10.3372 197.93 11.1158C197.494 11.8944 197.276 13.4219 197.276 15.6977L197.291 16.4915V23.0801H193.214V6.7883V6.78874Z" fill="#C00000"/>
</svg>
